<svg xmlns="http://www.w3.org/2000/svg" width="1580" height="824" viewBox="0 0 1580 824" role="img" aria-labelledby="title desc">
  <title id="title">Vue synthétique du tableau de bord SafeLine WAF</title>
  <desc id="desc">Illustration du tableau de bord de statistiques SafeLine WAF avec cartes de métriques, carte géographique et graphes de statut.</desc>
  <defs>
    <linearGradient id="bg" x1="0" x2="0" y1="0" y2="1">
      <stop offset="0%" stop-color="#f8fbfc"/>
      <stop offset="100%" stop-color="#eef4f5"/>
    </linearGradient>
    <linearGradient id="globe" x1="0" x2="1" y1="0" y2="1">
      <stop offset="0%" stop-color="#8ff1ec"/>
      <stop offset="100%" stop-color="#49c7cf"/>
    </linearGradient>
    <style>
      .small { font: 16px 'Segoe UI', Arial, sans-serif; fill: #66737d; }
      .label { font: 22px 'Segoe UI', Arial, sans-serif; fill: #7b8790; }
      .value { font: 36px 'Segoe UI', Arial, sans-serif; font-weight: 700; fill: #18242d; }
      .title { font: 28px 'Segoe UI', Arial, sans-serif; font-weight: 700; fill: #18242d; }
      .menu { font: 28px 'Segoe UI', Arial, sans-serif; fill: #24353d; }
      .menuActive { font: 28px 'Segoe UI', Arial, sans-serif; fill: white; }
      .tab { font: 24px 'Segoe UI', Arial, sans-serif; fill: #5b666f; }
      .tabActive { font: 24px 'Segoe UI', Arial, sans-serif; fill: white; font-weight: 700; }
    </style>
  </defs>

  <rect width="1580" height="824" fill="url(#bg)"/>
  <rect x="20" y="20" width="175" height="784" rx="12" fill="#f7fbfc"/>
  <text x="46" y="52" class="title">SafeLine WAF</text>
  <rect x="20" y="58" width="175" height="1" fill="#d9e6e8"/>
  <rect x="20" y="78" width="175" height="44" rx="8" fill="#22c6c4"/>
  <text x="56" y="107" class="menuActive">Statistics</text>
  <text x="56" y="150" class="menu">Applications</text>
  <text x="56" y="190" class="menu">Attacks</text>
  <text x="56" y="230" class="menu">Allow &amp; Deny</text>
  <text x="56" y="270" class="menu">HTTP Flood</text>
  <text x="56" y="310" class="menu">Anti-Bot</text>
  <text x="56" y="350" class="menu">Auth</text>
  <text x="56" y="390" class="menu">Settings</text>
  <text x="40" y="760" class="small">Version 9.3.3</text>

  <text x="220" y="50" class="title">SafeLine WAF &gt; Statistics</text>
  <rect x="220" y="76" width="190" height="38" rx="8" fill="#22c6c4"/>
  <text x="238" y="102" class="tabActive">TRAFFIC ANALYSIS</text>
  <text x="425" y="102" class="tab">SECURITY POSTURE</text>
  <text x="615" y="102" class="tab">DATA DASHBOARD</text>

  <rect x="1295" y="72" width="165" height="36" rx="8" fill="#ffffff" stroke="#d7e1e4"/>
  <text x="1330" y="96" class="small">All applications</text>
  <rect x="1470" y="72" width="90" height="36" rx="8" fill="#ffffff" stroke="#d7e1e4"/>
  <text x="1497" y="96" class="small">24 hours</text>

  <g transform="translate(215,116)">
    <rect width="337" height="75" rx="10" fill="#ffffff" stroke="#dde7ea"/>
    <text x="18" y="32" class="label">Requests</text>
    <text x="18" y="62" class="value">70</text>
    <text x="170" y="32" class="label">Views (PV)</text>
    <text x="170" y="62" class="value">58</text>
    <text x="320" y="32" class="label" text-anchor="end">Visitors (UV)</text>
    <text x="320" y="62" class="value" text-anchor="end">10</text>
  </g>

  <g transform="translate(560,116)">
    <rect width="330" height="75" rx="10" fill="#ffffff" stroke="#dde7ea"/>
    <text x="18" y="32" class="label">Unique IP</text>
    <text x="18" y="62" class="value">10</text>
    <text x="180" y="32" class="label">Blocked</text>
    <text x="180" y="62" class="value">4</text>
  </g>

  <g transform="translate(900,116)">
    <rect width="322" height="75" rx="10" fill="#ffffff" stroke="#dde7ea"/>
    <text x="18" y="32" class="label">IP Addr</text>
    <text x="18" y="62" class="value">0</text>
    <text x="180" y="32" class="label">Query Per Second</text>
    <text x="180" y="62" class="value">0</text>
  </g>

  <g transform="translate(215,200)">
    <rect width="330" height="65" rx="10" fill="#ffffff" stroke="#dde7ea"/>
    <text x="18" y="27" class="label">4xx Errors</text>
    <text x="18" y="54" class="value">52</text>
    <text x="180" y="27" class="label">Error Rate</text>
    <text x="180" y="54" class="value">74.29%</text>
  </g>

  <g transform="translate(555,200)">
    <rect width="330" height="65" rx="10" fill="#ffffff" stroke="#dde7ea"/>
    <text x="18" y="27" class="label">4xx Blocked</text>
    <text x="18" y="54" class="value">4</text>
    <text x="180" y="27" class="label">Blocked Rate</text>
    <text x="180" y="54" class="value">5.71%</text>
  </g>

  <g transform="translate(895,200)">
    <rect width="327" height="65" rx="10" fill="#ffffff" stroke="#dde7ea"/>
    <text x="18" y="27" class="label">5xx Errors</text>
    <text x="18" y="54" class="value">0</text>
    <text x="180" y="27" class="label">Error Rate</text>
    <text x="180" y="54" class="value">0.00%</text>
  </g>

  <rect x="215" y="277" width="1010" height="464" rx="12" fill="#ffffff" stroke="#dde7ea"/>
  <text x="238" y="319" class="title">Geo Location</text>
  <circle cx="608" cy="541" r="122" fill="url(#globe)"/>
  <circle cx="608" cy="541" r="152" fill="none" stroke="#ecf4f5" stroke-width="18"/>
  <circle cx="608" cy="541" r="175" fill="none" stroke="#f4f8f9" stroke-width="18"/>
  <path d="M565 487c22-16 39-24 61-20 24 4 45 20 67 45 11 13 18 30 13 47-6 22-22 29-36 43-17 18-36 23-57 16-23-8-41-29-54-56-14-29-11-55 6-75z" fill="#dffafa" opacity=".72"/>
  <path d="M635 615c17 8 28 18 27 30-2 14-19 24-42 24-20 0-37-8-46-18-10-12-3-24 13-33 14-8 31-9 48-3z" fill="#dffafa" opacity=".72"/>

  <rect x="958" y="388" width="240" height="242" rx="10" fill="#f9fbfc" stroke="#e0eaed"/>
  <text x="980" y="420" class="label">India</text>
  <text x="1178" y="420" class="label" text-anchor="end">38</text>
  <rect x="980" y="431" width="200" height="6" rx="3" fill="#dbe9ec"/>
  <rect x="980" y="431" width="200" height="6" rx="3" fill="#22c6c4"/>
  <text x="980" y="472" class="label">Morocco</text>
  <text x="1178" y="472" class="label" text-anchor="end">24</text>
  <rect x="980" y="483" width="200" height="6" rx="3" fill="#dbe9ec"/>
  <rect x="980" y="483" width="177" height="6" rx="3" fill="#22c6c4"/>
  <text x="980" y="524" class="label">United States</text>
  <text x="1178" y="524" class="label" text-anchor="end">6</text>
  <rect x="980" y="535" width="200" height="6" rx="3" fill="#dbe9ec"/>
  <rect x="980" y="535" width="105" height="6" rx="3" fill="#22c6c4"/>
  <text x="980" y="576" class="label">France</text>
  <text x="1178" y="576" class="label" text-anchor="end">1</text>
  <rect x="980" y="587" width="200" height="6" rx="3" fill="#dbe9ec"/>
  <rect x="980" y="587" width="38" height="6" rx="3" fill="#22c6c4"/>
  <text x="980" y="628" class="label">United Kingdom</text>
  <text x="1178" y="628" class="label" text-anchor="end">1</text>
  <rect x="980" y="639" width="200" height="6" rx="3" fill="#dbe9ec"/>
  <rect x="980" y="639" width="32" height="6" rx="3" fill="#22c6c4"/>

  <rect x="1238" y="277" width="322" height="232" rx="12" fill="#ffffff" stroke="#dde7ea"/>
  <text x="1262" y="320" class="title">Requests Status</text>
  <text x="1538" y="320" class="label" text-anchor="end">Max 65</text>
  <path d="M1268 488 L1350 488 L1405 488 L1460 488 L1505 488 L1518 355 L1534 477" fill="none" stroke="#2aa1de" stroke-width="5"/>
  <line x1="1268" y1="488" x2="1538" y2="488" stroke="#dbe5e9" stroke-width="2"/>

  <rect x="1238" y="520" width="322" height="221" rx="12" fill="#ffffff" stroke="#dde7ea"/>
  <text x="1262" y="562" class="title">Blocking Status</text>
  <text x="1538" y="562" class="label" text-anchor="end">Max 3</text>
  <path d="M1268 718 L1468 718 L1514 718 L1523 637 L1535 700" fill="none" stroke="#ff6e8d" stroke-width="5"/>
  <line x1="1268" y1="718" x2="1538" y2="718" stroke="#dbe5e9" stroke-width="2"/>
</svg>
